<?xml version="1.0" encoding="UTF-8"?>
<svg id="Layer_1" data-name="Layer 1" xmlns="http://www.w3.org/2000/svg" viewBox="0 0 24 24">
  <path d="M12.32,2.79c-.77-.77-1.82-1.21-2.91-1.21s-2.15,.44-2.92,1.21c-.77,.77-1.21,1.82-1.21,2.92s.44,2.14,1.21,2.91c.77,.78,1.82,1.21,2.92,1.21s2.14-.43,2.91-1.21c.78-.77,1.21-1.82,1.21-2.91s-.43-2.15-1.21-2.92Zm-2.91,8.54c-1.89,0-3.71,.75-5.04,2.09-1.34,1.33-2.09,3.15-2.09,5.04v.12c0,.13,.04,.25,.1,.36,.07,.11,.16,.2,.27,.27,1.97,1.19,4.28,1.87,6.76,1.87,.57,0,1.15-.04,1.71-.11,.04-.22,.11-.44,.19-.65,.72-1.78,1.45-3.55,2.18-5.32l.74-1.77c-1.3-1.22-3.03-1.9-4.82-1.9Z"/>
    <path d="M21.58,10.65c-.42-1.32-1.63-2.17-2.92-2.17-.3,0-.6,.04-.9,.14-1.59,.5-2.47,2.23-1.95,3.86,.41,1.32,1.62,2.17,2.92,2.17,.29,0,.6-.04,.89-.14,1.6-.5,2.47-2.23,1.96-3.86Z"/>
    <path d="M18.99,15.2c-.45,.7-.85,1.36-1.27,2.02-.98,1.53-1.96,3.03-2.92,4.58-.12,.21-.26,.36-.42,.46-.08,.06-.17,.09-.26,.12-.09,.03-.17,.04-.27,.04-.07,0-.13,0-.21,0-.07,0-.48-.18-.87-.4-.34-.21-.16-.92-.07-1.13,.03-.08,.06-.16,.1-.24,.83-2.05,1.68-4.1,2.53-6.14,.12-.29,.24-.59,.36-.88,.01-.02,.02-.03,.06-.09,.77,1.16,1.85,1.66,3.24,1.67Z"/>
  </g>
</svg>