<?xml version="1.0" encoding="UTF-8"?>
<svg id="Layer_1" data-name="Layer 1" xmlns="http://www.w3.org/2000/svg" viewBox="0 0 108.02 87.48">
  <path d="M108.02,35.29v.07c-.07,6.11-2.27,12.03-6.33,16.59-.03,.04-.06,.07-.1,.11-.92,1.03-1.99,1.9-3.41,1.06-1.61-.95-.77-2.24-.25-3.42,1.74-3.96,2.69-8.05,2.18-12.4-.73-6.24-10.74-12.67-16.19-10.07-1.09,.52-1.02,2.56-1.03,3.87-.07,11.65-.04,23.29-.04,34.94,0,12.3-7.49,20.14-20.7,21.44l-3.73-.17c-9.82-2.04-13.4-9.18-9.02-17.62,4.35-8.38,14.29-12.64,25.58-10.78,0-14.67,0-29.29,0-43.92,0-1.48,0-2.96,.05-4.44,.06-1.87,1.01-3.18,2.83-3.55,1.94-.39,3.83,.11,4.36,2.22,1.3,5.14,5.54,7.07,9.65,9.11,3.83,1.9,7.73,3.65,11.04,6.41,.26,.22,.53,.44,.78,.67,2.83,2.48,4.36,6.12,4.32,9.88Z" fill="#fff"/>
  <path d="M56.78,48.72c-7.1,3.36-12.69,7.27-16.36,13.43-2.57,4.3-4.61,8.86-4.07,13.9,.42,3.95-1.34,4.13-4.42,4.07-8.07-.17-16.15-.05-24.23-.06-5.29,0-7.52-1.85-7.69-7.18-.32-10.14,3.42-18.68,12.66-23.28,14.08-7.02,28.7-6.21,44.11-.88Z" fill="#fff"/>
  <path d="M35.93,0c9.88,.09,17.61,8.1,17.46,18.09-.15,9.56-8.17,17.39-17.78,17.36-9.74-.03-17.86-8.22-17.78-17.95C17.91,7.7,25.96-.09,35.93,0Z" fill="#fff"/>
</svg>