<?xml version="1.0" encoding="UTF-8"?>
<svg id="Layer_1" data-name="Layer 1" xmlns="http://www.w3.org/2000/svg" viewBox="0 0 85.38 86.8">
  <g id="sFQQOs.tif">
    <g>
      <path d="M85.38,16.51v63.01c-.05,.12-.13,.24-.16,.37-.43,1.99-1.44,3.62-3,4.94-1.21,1.03-2.65,1.53-4.12,1.97H7.32c-.07-.05-.13-.12-.21-.13C2.9,85.93-.06,81.93,0,77.75c.12-9,.04-18.01,.04-27.01,0-11.01,0-22.02,0-33.03,0-4.1,3.31-7.93,7.36-8.28,3.03-.26,6.09-.13,9.13-.18,.33,0,.66,0,1.08,0,0-1.74-.01-3.37,0-5,.02-1.78,.86-3.13,2.48-3.8,1.7-.7,3.43-.65,4.96,.54,1.01,.78,1.56,1.84,1.56,3.14,0,1.68,0,3.37,0,5.07H58.64c0-1.56,.02-3.08,0-4.59-.05-2.88,2.14-5.19,5.81-4.43,2.04,.42,3.26,2.11,3.3,4.35,.02,1.54,0,3.09,0,4.72,.4,0,.7,0,1,0,2.57,0,5.14,0,7.7,0,3.02,0,5.53,1.14,7.25,3.63,.75,1.08,1.13,2.41,1.68,3.62ZM9.87,30.23v46.72H75.55V30.23H9.87Z"/>
      <path d="M51.11,67.28c-.55-.2-1.12-.34-1.64-.6-2.06-1.05-4.09-2.15-6.16-3.17-.33-.16-.89-.16-1.22,0-2.04,1.01-4.06,2.07-6.08,3.15-1.19,.64-2.37,.78-3.49-.07-1.07-.82-1.3-1.94-1.05-3.25,.44-2.29,.8-4.6,1.15-6.91,.04-.29-.13-.71-.35-.92-1.67-1.68-3.38-3.32-5.07-4.99-.88-.87-1.31-1.91-.91-3.14,.39-1.19,1.29-1.81,2.48-2.03,.78-.14,1.56-.24,2.34-.35,1.64-.24,3.29-.44,4.93-.73,.29-.05,.62-.37,.76-.65,1.08-2.1,2.11-4.23,3.19-6.34,.89-1.75,2.65-2.37,4.15-1.41,.54,.34,.99,.93,1.29,1.5,1.08,2.04,2.09,4.12,3.1,6.19,.24,.49,.53,.69,1.08,.76,2.34,.3,4.68,.65,7.02,1.02,1.16,.18,2.05,.8,2.45,1.95,.43,1.22,.05,2.28-.83,3.16-1.68,1.67-3.38,3.33-5.08,4.97-.36,.35-.48,.65-.38,1.17,.45,2.38,.85,4.77,1.22,7.16,.29,1.83-1.05,3.4-2.9,3.53Z"/>
    </g>
  </g>
</svg>