<?xml version="1.0" encoding="UTF-8"?>
<svg id="Layer_1" data-name="Layer 1" xmlns="http://www.w3.org/2000/svg" viewBox="0 0 128.79 97.83">
  <path d="M27.48,0c7.56,.07,13.47,6.2,13.35,13.84-.11,7.31-6.25,13.3-13.6,13.28-7.45-.02-13.66-6.29-13.6-13.73C13.7,5.89,19.86-.07,27.48,0Z"/>
  <path d="M35.81,35.19c-.06,7.24,2.61,14.13,7.53,19.53-2.24,.8-4.44,1.73-6.6,2.81s-4.14,2.32-5.94,3.71H5.89c-4.05-.01-5.75-1.41-5.88-5.49-.24-7.76,2.62-14.29,9.68-17.81,5.71-2.85,11.55-4.02,17.53-3.86h.01c2.89-.08,5.76,.16,8.59,.75-.01,.12-.01,.24-.01,.36Z"/>
  <path d="M101.91,.24c7.53,.07,13.43,6.17,13.31,13.79-.11,7.29-6.23,13.26-13.56,13.23-7.42-.02-13.61-6.27-13.55-13.68,.06-7.47,6.2-13.41,13.8-13.34Z"/>
  <path d="M128.77,55.79c-.13,4.07-1.83,5.47-5.86,5.48h-24.53c-1.81-1.41-3.81-2.66-5.98-3.74-2.12-1.06-4.28-1.99-6.48-2.78,4.53-4.98,7.34-11.54,7.45-18.72,.01-.38,0-.76-.01-1.14,2.73-.54,5.49-.76,8.28-.69h.01c5.96-.15,11.77,1.01,17.47,3.85,7.03,3.5,9.88,10.01,9.65,17.74Z"/>
  <g>
    <path d="M87.5,67.37c-7.04-3.51-14.22-5.07-21.56-5.07-.45,0-.9,.01-1.35,.02h-.02c-.45-.01-.9-.02-1.35-.02-7.34,0-14.52,1.56-21.56,5.07-9.23,4.6-12.97,13.14-12.66,23.28,.17,5.33,2.4,7.17,7.69,7.18h55.78c5.29,0,7.52-1.85,7.69-7.18,.31-10.14-3.43-18.68-12.66-23.28Z" fill="#1d1d1b"/>
    <path d="M82.37,35.86c-.02,1.19-.16,2.35-.41,3.48h0c-.72,3.24-2.36,6.16-4.62,8.47-.09,.11-.2,.21-.3,.31-.62,.61-1.28,1.17-1.99,1.69h-.01c-2.93,2.14-6.54,3.41-10.4,3.41h-.05c-3.99-.01-7.72-1.39-10.71-3.7-3.23-2.47-5.61-6.02-6.58-10.05-.33-1.35-.5-2.75-.49-4.19,.05-5.48,2.59-10.34,6.56-13.54,.45-.36,.91-.69,1.38-1,2.85-1.88,6.29-2.97,10-2.97h.16c9.89,.09,17.62,8.1,17.46,18.09Z" fill="#1d1d1b"/>
  </g>
</svg>